<?xml version="1.0" encoding="UTF-8"?>
<svg version="1.1" xmlns="http://www.w3.org/2000/svg" width="32" height="32">
<path d="M0 0 C4.8846525 2.26787438 7.73212562 5.1153475 10 10 C10.75381535 15.5997712 10.77303575 20.33499991 8.375 25.5 C3.80134327 30.3143755 0.6912538 32.25156236 -6 32.5 C-12.6912538 32.25156236 -15.80134327 30.3143755 -20.375 25.5 C-22.78578539 20.30753916 -22.98595919 15.62143897 -22 10 C-17.23963142 0.23356639 -10.24499451 -1.09865893 0 0 Z " fill="#F7FBFC" transform="translate(22,0)"/>
<path d="M0 0 C1.65 0.99 3.3 1.98 5 3 C5 2.01 5 1.02 5 0 C5.66 0 6.32 0 7 0 C7 0.99 7 1.98 7 3 C8.65 2.01 10.3 1.02 12 0 C12.33 1.98 12.66 3.96 13 6 C14.32 6 15.64 6 17 6 C17.12375 6.78375 17.2475 7.5675 17.375 8.375 C17.79117993 11.14057822 17.79117993 11.14057822 20 13 C18.25093469 13.64836042 16.50070781 14.29358784 14.75 14.9375 C13.77546875 15.29714844 12.8009375 15.65679687 11.796875 16.02734375 C5.48016463 18.22407683 5.48016463 18.22407683 2.1875 16.6875 C1.135625 16.130625 0.08375 15.57375 -1 15 C-3.31593547 14.22646823 -5.63457919 13.61500941 -8 13 C-7.525625 12.4225 -7.05125 11.845 -6.5625 11.25 C-5.0515133 9.07417916 -4.45963849 7.57397552 -4 5 C-2.68 5.33 -1.36 5.66 0 6 C0 4.02 0 2.04 0 0 Z " fill="#6B6666" transform="translate(10,7)"/>
<path d="M0 0 C2.5 0.8125 2.5 0.8125 5 3 C5.47172269 6.76268217 5.22433673 10.18627561 5 14 C1.7 12.35 -1.6 10.7 -5 9 C-4.67 7.68 -4.34 6.36 -4 5 C-2.02 5.495 -2.02 5.495 0 6 C0 4.02 0 2.04 0 0 Z " fill="#9E7468" transform="translate(10,7)"/>
<path d="M0 0 C6.53551913 0.75409836 6.53551913 0.75409836 9.125 2.125 C12.52085988 3.70973461 15.61077525 2.12974158 19 1 C19.66 1.66 20.32 2.32 21 3 C20.34 3 19.68 3 19 3 C19 3.66 19 4.32 19 5 C16.3125 6.625 16.3125 6.625 13 8 C10.75 7.375 10.75 7.375 8 6 C6.23653033 5.4348202 4.46483085 4.89495051 2.6875 4.375 C1.80449219 4.11460938 0.92148438 3.85421875 0.01171875 3.5859375 C-0.65214844 3.39257812 -1.31601563 3.19921875 -2 3 C-1.34 2.01 -0.68 1.02 0 0 Z " fill="#306E80" transform="translate(4,17)"/>
<path d="M0 0 C0.33 1.98 0.66 3.96 1 6 C2.32 6 3.64 6 5 6 C3.02 6.99 3.02 6.99 1 8 C1 8.66 1 9.32 1 10 C0.38125 10.144375 -0.2375 10.28875 -0.875 10.4375 C-3.03258322 10.93152225 -3.03258322 10.93152225 -5 12 C-5.22893174 8.96665446 -5.35945315 6.02584445 -5 3 C-2.18181818 0 -2.18181818 0 0 0 Z " fill="#8F9498" transform="translate(22,7)"/>
<path d="M0 0 C1.98 0.99 1.98 0.99 4 2 C4 4.97 4 7.94 4 11 C2.68 10.34 1.36 9.68 0 9 C0 6.03 0 3.06 0 0 Z " fill="#C8A79D" transform="translate(11,10)"/>
<path d="M0 0 C0.66 1.32 1.32 2.64 2 4 C3.32 3.34 4.64 2.68 6 2 C6.33 2.66 6.66 3.32 7 4 C5.68 4.33 4.36 4.66 3 5 C3 5.66 3 6.32 3 7 C2.01 6.67 1.02 6.34 0 6 C0 4.02 0 2.04 0 0 Z " fill="#F4AF97" transform="translate(20,10)"/>
</svg>