<svg xmlns="http://www.w3.org/2000/svg" width="180" height="50" viewBox="0 0 180 50">
  <rect width="180" height="50" fill="white"/>
  <path d="M10 32V15h3v14h8v3H10z" fill="#0047AB"/>
  <path d="M23 32V15h3v6.5c0.5-0.7 1.1-1.2 1.8-1.6 0.7-0.4 1.5-0.6 2.4-0.6 1.4 0 2.5 0.4 3.3 1.3 0.8 0.9 1.2 2.1 1.2 3.6V32h-3v-7c0-0.9-0.2-1.6-0.6-2.1-0.4-0.5-1-0.7-1.8-0.7-0.8 0-1.5 0.3-2 0.8-0.5 0.5-0.8 1.2-0.8 2.1V32h-3z" fill="#0047AB"/>
  <path d="M38 32V20h3v2c0.4-0.7 0.9-1.3 1.6-1.7 0.7-0.4 1.4-0.6 2.3-0.6 1.4 0 2.5 0.4 3.3 1.3 0.8 0.9 1.2 2.1 1.2 3.6V32h-3v-7c0-0.9-0.2-1.6-0.6-2.1-0.4-0.5-1-0.7-1.8-0.7-0.8 0-1.5 0.3-2 0.8-0.5 0.5-0.8 1.2-0.8 2.1V32h-3z" fill="#0047AB"/>
  <path d="M52 26c0-1.8 0.6-3.3 1.9-4.5 1.3-1.2 2.9-1.8 4.8-1.8 1.9 0 3.5 0.6 4.8 1.8 1.3 1.2 1.9 2.7 1.9 4.5 0 1.8-0.6 3.3-1.9 4.5-1.3 1.2-2.9 1.8-4.8 1.8-1.9 0-3.5-0.6-4.8-1.8-1.3-1.2-1.9-2.7-1.9-4.5zm3 0c0 1 0.3 1.8 0.9 2.4 0.6 0.6 1.4 0.9 2.4 0.9 1 0 1.8-0.3 2.4-0.9 0.6-0.6 0.9-1.4 0.9-2.4 0-1-0.3-1.8-0.9-2.4-0.6-0.6-1.4-0.9-2.4-0.9-1 0-1.8 0.3-2.4 0.9-0.6 0.6-0.9 1.4-0.9 2.4z" fill="#0047AB"/>
  <path d="M68 32V20h3v2c0.4-0.7 0.9-1.3 1.6-1.7 0.7-0.4 1.4-0.6 2.3-0.6 1.4 0 2.5 0.4 3.3 1.3 0.8 0.9 1.2 2.1 1.2 3.6V32h-3v-7c0-0.9-0.2-1.6-0.6-2.1-0.4-0.5-1-0.7-1.8-0.7-0.8 0-1.5 0.3-2 0.8-0.5 0.5-0.8 1.2-0.8 2.1V32h-3z" fill="#0047AB"/>
  <path d="M82 32V15h3v6.5c0.5-0.7 1.1-1.2 1.8-1.6 0.7-0.4 1.5-0.6 2.4-0.6 1.4 0 2.5 0.4 3.3 1.3 0.8 0.9 1.2 2.1 1.2 3.6V32h-3v-7c0-0.9-0.2-1.6-0.6-2.1-0.4-0.5-1-0.7-1.8-0.7-0.8 0-1.5 0.3-2 0.8-0.5 0.5-0.8 1.2-0.8 2.1V32h-3z" fill="#0047AB"/>
  <path d="M97 32V15h3v17h-3z" fill="#0047AB"/>
  <path d="M103 32V20h3v2c0.4-0.7 0.9-1.3 1.6-1.7 0.7-0.4 1.4-0.6 2.3-0.6 1.4 0 2.5 0.4 3.3 1.3 0.8 0.9 1.2 2.1 1.2 3.6V32h-3v-7c0-0.9-0.2-1.6-0.6-2.1-0.4-0.5-1-0.7-1.8-0.7-0.8 0-1.5 0.3-2 0.8-0.5 0.5-0.8 1.2-0.8 2.1V32h-3z" fill="#0047AB"/>
  <path d="M118 32v-2c-0.4 0.7-0.9 1.3-1.6 1.7-0.7 0.4-1.4 0.6-2.3 0.6-1.4 0-2.5-0.4-3.3-1.3-0.8-0.9-1.2-2.1-1.2-3.6V20h3v7c0 0.9 0.2 1.6 0.6 2.1 0.4 0.5 1 0.7 1.8 0.7 0.8 0 1.5-0.3 2-0.8 0.5-0.5 0.8-1.2 0.8-2.1V20h3v12h-3z" fill="#0047AB"/>
  <path d="M123 32V15h3v6.5c0.5-0.7 1.1-1.2 1.8-1.6 0.7-0.4 1.5-0.6 2.4-0.6 1.4 0 2.5 0.4 3.3 1.3 0.8 0.9 1.2 2.1 1.2 3.6V32h-3v-7c0-0.9-0.2-1.6-0.6-2.1-0.4-0.5-1-0.7-1.8-0.7-0.8 0-1.5 0.3-2 0.8-0.5 0.5-0.8 1.2-0.8 2.1V32h-3z" fill="#0047AB"/>
  <path d="M138 32V15h3v17h-3z" fill="#0047AB"/>
  <path d="M144 32V20h3v2c0.4-0.7 0.9-1.3 1.6-1.7 0.7-0.4 1.4-0.6 2.3-0.6 1.4 0 2.5 0.4 3.3 1.3 0.8 0.9 1.2 2.1 1.2 3.6V32h-3v-7c0-0.9-0.2-1.6-0.6-2.1-0.4-0.5-1-0.7-1.8-0.7-0.8 0-1.5 0.3-2 0.8-0.5 0.5-0.8 1.2-0.8 2.1V32h-3z" fill="#0047AB"/>
  <path d="M159 32v-2c-0.4 0.7-0.9 1.3-1.6 1.7-0.7 0.4-1.4 0.6-2.3 0.6-1.4 0-2.5-0.4-3.3-1.3-0.8-0.9-1.2-2.1-1.2-3.6V20h3v7c0 0.9 0.2 1.6 0.6 2.1 0.4 0.5 1 0.7 1.8 0.7 0.8 0 1.5-0.3 2-0.8 0.5-0.5 0.8-1.2 0.8-2.1V20h3v12h-3z" fill="#0047AB"/>
</svg>